# xmcd
#
# Track frame offsets:
#	150
#	11175
#	27900
#	44775
#	62550
#	79125
#	94950
#	113250
#	128700
#	143925
#	158025
#	171975
#	185100
#	200175
#	214500
#	230700
#	243450
#	258000
#	273225
#	286650
#	300750
#
# Disc length: 4195 seconds
#
# Revision: 0
# Processed by: cddbd v1.5.2PL0 Copyright (c) Steve Scherf et al.
# Submitted via: EasyCDDAExtractor 8.2.3.1
#
DISCID=28106115
DTITLE=Various Artist - Boogie Woogie [ONN71]
DYEAR=1900
DGENRE=Blues
TTITLE0=Albert Ammons - Shout For Joy
TTITLE1=Albert Ammons - Boogie Woogie Stomp
TTITLE2=Albert Ammons - Boogie Woogie Blues
TTITLE3=Albert Ammons - Suitcase Blues
TTITLE4=Albert Ammons - Bass Goin' Crazy
TTITLE5=Albert Ammons - Boogie Woogie
TTITLE6=Albert Ammons - Chicago In My Mind
TTITLE7=Pete Johnson - Shuffle Boogie
TTITLE8=Pete Johnson - Climbin' And Screamin'
TTITLE9=Pete Johnson - Pete's Blues
TTITLE10=Pete Johnson - Let Em Jump
TTITLE11=Meade Lux Lewis - Honky Tonk Train Blues
TTITLE12=Meade Lux Lewis - Yancey Special
TTITLE13=Meade Lux Lewis - Celeste Blues
TTITLE14=Meade Lux Lewis - Whistlin' Blues
TTITLE15=Clarence 'Pinetop' Smith - Pinetop's Blues
TTITLE16=Clarence 'Pinetop' Smith - Pinetop's Boogie Woogie
TTITLE17=Clarence 'Pinetop' Smirh - Jump Steady Blues
TTITLE18=Jimmy Yancey - Janie's Joy
TTITLE19=Jimmy Yancey - P  L  K Special
TTITLE20=Jimmy Yancey - South Side Stuff
EXTD=
EXTT0=
EXTT1=
EXTT2=
EXTT3=
EXTT4=
EXTT5=
EXTT6=
EXTT7=
EXTT8=
EXTT9=
EXTT10=
EXTT11=
EXTT12=
EXTT13=
EXTT14=
EXTT15=
EXTT16=
EXTT17=
EXTT18=
EXTT19=
EXTT20=
PLAYORDER=
